HIERARCHY
ROOT Hips
{
	OFFSET 0.00000 0.00000 0.00000
	CHANNELS 6 Xposition Yposition Zposition Zrotation Yrotation Xrotation 
	JOINT LHipJoint
	{
		OFFSET 0 0 0
		CHANNELS 3 Zrotation Yrotation Xrotation
		JOINT LeftHip
		{
			OFFSET 2.36090 -1.39315 1.24752
			CHANNELS 3 Zrotation Yrotation Xrotation
			JOINT LeftKnee
			{
				OFFSET 2.06810 -5.68207 0.00000
				CHANNELS 3 Zrotation Yrotation Xrotation
				JOINT LeftAnkle
				{
					OFFSET 2.46631 -6.77613 0.00000
					CHANNELS 3 Zrotation Yrotation Xrotation
					JOINT LeftToe
					{
						OFFSET 0.26031 -0.71520 1.99545
						CHANNELS 3 Zrotation Yrotation Xrotation
						End Site
						{
							OFFSET 0.00000 -0.00000 1.05957
						}
					}
				}
			}
		}
	}
	JOINT RHipJoint
	{
		OFFSET 0 0 0
		CHANNELS 3 Zrotation Yrotation Xrotation
		JOINT RightHip
		{
			OFFSET -2.25243 -1.39315 1.24752
			CHANNELS 3 Zrotation Yrotation Xrotation
			JOINT RightKnee
			{
				OFFSET -2.17343 -5.97145 0.00000
				CHANNELS 3 Zrotation Yrotation Xrotation
				JOINT RightAnkle
				{
					OFFSET -2.52372 -6.93386 0.00000
					CHANNELS 3 Zrotation Yrotation Xrotation
					JOINT RightToe
					{
						OFFSET -0.22538 -0.61923 2.11447
						CHANNELS 3 Zrotation Yrotation Xrotation
						End Site
						{
							OFFSET -0.00000 -0.00000 1.10506
						}
					}
				}
			}
		}
	}
	JOINT lowerback
	{
		OFFSET 0 0 0
		CHANNELS 3 Zrotation Yrotation Xrotation
		JOINT Chest
		{
			OFFSET 0.01594 2.13103 0.08007
			CHANNELS 3 Zrotation Yrotation Xrotation
			JOINT Chest2
			{
				OFFSET 0.01393 2.09723 0.18338
				CHANNELS 3 Zrotation Yrotation Xrotation
				JOINT lowerneck
				{
					OFFSET 0 0 0
					CHANNELS 3 Zrotation Yrotation Xrotation
					JOINT Neck
					{
						OFFSET 0.05351 1.38915 0.32494
						CHANNELS 3 Zrotation Yrotation Xrotation
						JOINT Head
						{
							OFFSET 0.00711 1.45992 -0.21666
							CHANNELS 3 Zrotation Yrotation Xrotation
							End Site
							{
								OFFSET -0.00433 1.47702 -0.11056
							}
						}
					}
				}
				JOINT LeftCollar
				{
					OFFSET 0 0 0
					CHANNELS 3 Zrotation Yrotation Xrotation
					JOINT LeftShoulder
					{
						OFFSET 2.87198 0.92249 0.11132
CHANNELS 3 Zrotation Xrotation Yrotation
						JOINT LeftElbow
						{
OFFSET 0 -5.527310 0.000000
CHANNELS 3 Zrotation Xrotation Yrotation
							JOINT LeftWrist
							{
OFFSET 0 -3.110590 0.000000
CHANNELS 3 Zrotation Xrotation Yrotation
								JOINT lhand
								{
									OFFSET 0 0 0
CHANNELS 3 Zrotation Xrotation Yrotation
									JOINT LFingers
									{
OFFSET 0 -0.419630 0.000000
CHANNELS 3 Zrotation Xrotation Yrotation
										End Site
										{
OFFSET 0 -0.338310 0.000000
										}
									}
								}
								JOINT LThumb
								{
OFFSET 0 0.000000 0.000000
CHANNELS 3 Zrotation Xrotation Yrotation
									End Site
									{
OFFSET 0 -0.343480 0.343480
									}
								}
							}
						}
					}
				}
				JOINT RightCollar
				{
					OFFSET 0 0 0
					CHANNELS 3 Zrotation Yrotation Xrotation
					JOINT RightShoulder
					{
						OFFSET -2.94710 0.68072 0.32187
CHANNELS 3 Zrotation Xrotation Yrotation
						JOINT RightElbow
						{
OFFSET 0 -5.253960 -0.000000
CHANNELS 3 Zrotation Xrotation Yrotation
							JOINT RightWrist
							{
OFFSET 0 -3.105670 0.000000
CHANNELS 3 Zrotation Xrotation Yrotation
								JOINT rhand
								{
									OFFSET 0 0 0
CHANNELS 3 Zrotation Xrotation Yrotation
									JOINT RFingers
									{
OFFSET 0 -0.498680 0.000000
CHANNELS 3 Zrotation Xrotation Yrotation
										End Site
										{
OFFSET 0 -0.402040 0.000000
										}
									}
								}
								JOINT RThumb
								{
OFFSET 0 0.000000 0.000000
CHANNELS 3 Zrotation Xrotation Yrotation
									End Site
									{
OFFSET 0 -0.408180 0.408180
									}
								}
							}
						}
					}
				}
			}
		}
	}
}
MOTION
Frames: 8
Frame Time: 0.008333333333333333
3.052500 2.236500 19.877000 12.388300 -83.509100 -72.136700 0.000000 0.000000 0.000000 18.596000 -17.810700 -77.815100 29.079100 17.896200 117.475500 -0.740700 -20.531500 22.582700 2.040900 -8.950800 -25.641500 0.000000 0.000000 0.000000 -23.168800 11.173300 -87.321600 -32.500400 -15.738600 129.260500 0.358400 17.440600 21.178100 -0.256900 3.261200 -9.006900 -12.183000 -2.432200 11.479900 0.171500 -5.221600 15.249800 6.846800 -4.626900 11.589100 13.255000 11.121400 -35.622700 -4.563800 10.920200 38.131700 -1.581700 5.105300 24.218000 0.000000 0.000000 0.000000 -10.756400 46.594600 25.508400 15.893000 -25.375400 3.600000 -115.864100 -73.647500 -7.833800 0.000000 0.000000 0.000000 -7.125000 0.000000 0.000000 -30.214300 36.193500 -134.635900 0.000000 0.000000 0.000000 -39.636800 52.563000 60.838200 -18.898000 -29.291700 -4.980800 -84.558300 56.351200 29.340500 0.000000 0.000000 0.000000 7.125000 0.000000 -0.000000 156.157600 20.625500 -15.273900
2.960670 2.222027 19.890723 11.379438 -83.931045 -71.266773 0.000000 0.000000 0.000000 19.417608 -17.520664 -78.275060 29.386281 17.740771 118.479463 -0.839507 -20.892636 22.220252 2.016154 -8.899598 -25.481821 0.000000 0.000000 0.000000 -22.809208 10.729266 -87.510293 -32.667713 -15.605396 129.879800 0.515216 18.170385 20.673174 -0.385061 3.982071 -11.026526 -8.094669 -1.220960 10.443201 -0.513677 -3.027186 14.820147 3.862719 -2.863925 10.629506 9.110306 7.548137 -33.542009 -1.222523 6.381433 38.140906 -0.481406 3.387315 21.555564 0.000000 0.000000 0.000000 -1.378205 50.030363 15.005353 15.913975 -25.403804 3.608926 -116.088684 -81.304697 -4.694327 0.000000 0.000000 0.000000 -7.125000 0.000000 0.000000 -33.510397 41.937909 -129.366091 0.000000 0.000000 0.000000 -30.888244 58.502497 51.730702 -19.013234 -29.435142 -5.037392 -83.652252 56.118024 29.112953 0.000000 0.000000 0.000000 7.125000 0.000000 0.000000 156.358613 19.112755 -16.012255
2.874483 2.204794 19.901111 11.112258 -84.196209 -71.180263 0.000000 0.000000 0.000000 20.007106 -17.244515 -78.594864 29.654520 17.599516 119.363209 -0.922334 -21.172842 21.866863 1.959047 -8.780251 -25.110316 0.000000 0.000000 0.000000 -22.585142 10.383681 -87.686079 -32.838483 -15.466376 130.517435 0.727771 19.087867 19.865955 -0.617879 5.028783 -13.991020 -6.375048 -0.712173 10.157599 -0.809017 -2.129177 14.269324 2.619171 -2.121770 9.858885 7.102594 5.843618 -31.052131 0.342884 4.366048 37.487830 0.016349 2.589136 20.148434 0.000000 0.000000 0.000000 2.770860 52.581634 9.857122 16.019961 -25.547615 3.654590 -116.146255 -87.847721 -1.968450 0.000000 0.000000 0.000000 -7.125000 0.000000 0.000000 -37.159301 46.839698 -124.088038 0.000000 0.000000 0.000000 -27.486282 61.839484 47.799493 -19.273739 -29.757416 -5.166015 -82.730153 55.147795 28.903000 0.000000 0.000000 0.000000 7.125000 0.000000 0.000000 156.574157 17.572330 -16.724764
2.791376 2.181001 19.912268 11.320035 -84.318295 -71.574010 0.000000 0.000000 0.000000 20.412579 -17.023436 -78.913219 29.909360 17.460476 120.209268 -1.008239 -21.475536 21.521419 1.953219 -8.767877 -25.071907 0.000000 0.000000 0.000000 -22.693635 10.036046 -87.946858 -33.006387 -15.326500 131.149857 0.867424 19.747766 19.462892 -0.747696 5.523283 -15.407410 -6.850914 -0.980279 10.151223 -0.967584 -2.512357 14.208454 2.713843 -2.354791 9.857833 7.825290 6.094116 -30.407768 0.012856 4.559529 37.158176 -0.237714 2.720028 19.834238 0.000000 0.000000 0.000000 1.108672 53.924654 11.109773 16.141065 -25.711596 3.706973 -116.013165 -92.438964 -0.066137 0.000000 0.000000 0.000000 -7.125000 0.000000 0.000000 -40.341685 50.124541 -119.765199 0.000000 0.000000 0.000000 -30.038877 62.074631 49.785936 -19.509668 -30.047013 -5.283584 -81.760741 53.677066 28.638896 0.000000 0.000000 0.000000 7.125000 0.000000 0.000000 156.773180 15.924816 -17.479768
2.711754 2.149696 19.923340 10.831844 -84.447599 -71.211956 0.000000 0.000000 0.000000 20.908713 -16.805561 -79.427424 30.162586 17.317395 121.056529 -1.103009 -21.860300 21.250614 1.977062 -8.818126 -25.228030 0.000000 0.000000 0.000000 -22.872992 9.704482 -88.302842 -33.166890 -15.189672 131.759777 0.953208 20.194345 19.322858 -0.802469 5.717306 -15.966404 -7.286802 -1.238989 10.227617 -1.072718 -2.898911 14.220495 2.842360 -2.596601 9.901837 8.372898 6.270706 -30.211620 -0.349401 4.717459 36.879705 -0.473091 2.805539 19.663739 0.000000 0.000000 0.000000 -0.665647 54.988582 12.375959 16.247663 -25.855268 3.753294 -115.777746 -95.790778 1.214259 0.000000 0.000000 0.000000 -7.125000 0.000000 0.000000 -42.916364 52.236643 -116.374653 0.000000 0.000000 0.000000 -32.291071 62.055077 51.253191 -19.679879 -30.254746 -5.369157 -80.694841 52.065495 28.336189 0.000000 0.000000 0.000000 7.125000 0.000000 0.000000 156.982416 14.097583 -18.287421
2.636225 2.111740 19.934021 9.324567 -84.617847 -69.748853 0.000000 0.000000 0.000000 21.567899 -16.581894 -80.175652 30.412775 17.171033 121.900527 -1.198103 -22.293346 21.098058 1.995242 -8.856161 -25.346335 0.000000 0.000000 0.000000 -23.000615 9.389553 -88.753236 -33.319940 -15.056386 132.346544 1.024974 20.570816 19.226142 -0.863310 5.924685 -16.566045 -7.463937 -1.425980 10.317643 -1.160721 -3.175967 14.245330 2.846946 -2.756250 9.922269 8.596978 6.225779 -30.178591 -0.578857 4.632977 36.603136 -0.647071 2.770366 19.502186 0.000000 0.000000 0.000000 -1.893737 55.955124 13.036409 16.363870 -26.011544 3.804179 -115.515924 -99.033840 2.404810 0.000000 0.000000 0.000000 -7.125000 0.000000 0.000000 -45.635475 54.145748 -112.895610 0.000000 0.000000 0.000000 -33.722231 62.106810 51.970150 -19.784754 -30.382135 -5.422046 -79.690371 50.518504 28.026423 0.000000 0.000000 0.000000 7.125000 0.000000 0.000000 157.164492 12.353968 -19.036372
2.564638 2.067584 19.945511 8.873485 -84.619987 -69.356772 0.000000 0.000000 0.000000 21.977460 -16.371298 -80.861792 30.639970 17.033830 122.673017 -1.281897 -22.676420 20.981743 2.011787 -8.890675 -25.453854 0.000000 0.000000 0.000000 -23.404216 9.058303 -89.310559 -33.476638 -14.916976 132.952360 1.104844 21.021974 19.216818 -0.910934 6.081685 -17.021745 -7.754116 -1.541485 10.485707 -1.327153 -3.365720 14.291470 2.831597 -2.880146 9.918618 8.698186 6.099354 -30.153277 -0.707791 4.443099 36.311088 -0.777078 2.691663 19.317854 0.000000 0.000000 0.000000 -2.890034 56.883986 13.432897 16.506692 -26.202840 3.866988 -115.219497 -102.558663 3.679858 0.000000 0.000000 0.000000 -7.125000 0.000000 0.000000 -48.918459 56.121317 -108.819368 0.000000 0.000000 0.000000 -34.779495 62.143764 52.401541 -19.827425 -30.433805 -5.443638 -78.669566 48.880027 27.669463 0.000000 0.000000 0.000000 7.125000 0.000000 0.000000 157.325116 10.548264 -19.801796
2.497630 2.019106 19.957471 7.883571 -84.646490 -68.352634 0.000000 0.000000 0.000000 22.498818 -16.097129 -81.714984 30.856876 16.898979 123.416198 -1.357711 -23.082504 21.039697 2.016586 -8.900573 -25.484819 0.000000 0.000000 0.000000 -23.795252 8.735227 -89.967402 -33.625752 -14.781406 133.534258 1.174061 21.426884 19.265440 -0.941370 6.179681 -17.306544 -7.960866 -1.649778 10.662215 -1.482062 -3.542960 14.332452 2.784459 -2.988506 9.896396 8.732666 5.927879 -30.110019 -0.839554 4.223187 36.029220 -0.904471 2.589771 19.131074 0.000000 0.000000 0.000000 -3.781831 57.796064 13.647352 16.701515 -26.462638 3.953393 -114.764593 -107.351468 5.450634 0.000000 0.000000 0.000000 -7.125000 0.000000 0.000000 -54.219519 58.692443 -102.447478 0.000000 0.000000 0.000000 -35.624716 62.168505 52.615293 -19.847444 -30.458076 -5.453777 -77.585010 47.077742 27.271180 0.000000 0.000000 0.000000 7.125000 0.000000 0.000000 157.483759 8.609889 -20.596181
